# xmcd
#
# Track frame offsets:
#	150
#	13055
#	28135
#	42497
#	57372
#	70487
#	85017
#	98815
#	112472
#	125502
#	138630
#	150617
#	164545
#	178357
#
# Disc length: 2561 seconds
# Revision: 0
# Processed by: cddbd v1.5.2PL0 Copyright (c) Steve Scherf et al.
# Submitted via: dBpowerAMP V12.0
#
DISCID=d209ff0e
DTITLE=Ma Rainey - Ma Rainey's Black Bottom
DYEAR=1990
DGENRE=Blues
TTITLE0=Oh Papa Blues [1927]
TTITLE1=Black Eye Blues (Take 1) [1928]
TTITLE2="Ma" Rainey's Black Bottom [1927]
TTITLE3=Booze and Blues [1924]
TTITLE4=Blues Oh Blues [1927]
TTITLE5=Sleep Talking Blues (Take 1) [1928]
TTITLE6=Lucky Rock Blues [1924]
TTITLE7=Georgia Cave Walk [1927]
TTITLE8=Don't Fish in My Sea [1926]
TTITLE9=Stack O'Lee Blues [1926]
TTITLE10=Shave 'Em Dry Blues [1924]
TTITLE11=Yonder Come the Blues (Take 1) [1926]
TTITLE12=Screech Owl Blues [1928]
TTITLE13=Farewell Daddy Blues [1924]
EXTD=
EXTT0=
EXTT1=
EXTT2=
EXTT3=
EXTT4=
EXTT5=
EXTT6=
EXTT7=
EXTT8=
EXTT9=
EXTT10=
EXTT11=
EXTT12=
EXTT13=
PLAYORDER=
